HIERARCHY
ROOT Hips
{
	OFFSET 0.00000 0.00000 0.00000
	CHANNELS 6 Xposition Yposition Zposition Zrotation Yrotation Xrotation 
	JOINT LHipJoint
	{
		OFFSET 0 0 0
		CHANNELS 3 Zrotation Yrotation Xrotation
		JOINT LeftHip
		{
			OFFSET 1.58895 -1.83665 0.71753
			CHANNELS 3 Zrotation Yrotation Xrotation
			JOINT LeftKnee
			{
				OFFSET 2.50528 -6.88321 0.00000
				CHANNELS 3 Zrotation Yrotation Xrotation
				JOINT LeftAnkle
				{
					OFFSET 2.63244 -7.23257 0.00000
					CHANNELS 3 Zrotation Yrotation Xrotation
					JOINT LeftToe
					{
						OFFSET 0.23691 -0.65090 1.72750
						CHANNELS 3 Zrotation Yrotation Xrotation
						End Site
						{
							OFFSET 0.00000 -0.00000 0.92561
						}
					}
				}
			}
		}
	}
	JOINT RHipJoint
	{
		OFFSET 0 0 0
		CHANNELS 3 Zrotation Yrotation Xrotation
		JOINT RightHip
		{
			OFFSET -1.51435 -1.83665 0.71753
			CHANNELS 3 Zrotation Yrotation Xrotation
			JOINT RightKnee
			{
				OFFSET -2.54551 -6.99375 0.00000
				CHANNELS 3 Zrotation Yrotation Xrotation
				JOINT RightAnkle
				{
					OFFSET -2.66027 -7.30903 0.00000
					CHANNELS 3 Zrotation Yrotation Xrotation
					JOINT RightToe
					{
						OFFSET -0.22981 -0.63138 2.03959
						CHANNELS 3 Zrotation Yrotation Xrotation
						End Site
						{
							OFFSET -0.00000 -0.00000 1.07060
						}
					}
				}
			}
		}
	}
	JOINT lowerback
	{
		OFFSET 0 0 0
		CHANNELS 3 Zrotation Yrotation Xrotation
		JOINT Chest
		{
			OFFSET -0.02651 1.86275 -0.11152
			CHANNELS 3 Zrotation Yrotation Xrotation
			JOINT Chest2
			{
				OFFSET 0.01019 1.86224 0.04087
				CHANNELS 3 Zrotation Yrotation Xrotation
				JOINT lowerneck
				{
					OFFSET 0 0 0
					CHANNELS 3 Zrotation Yrotation Xrotation
					JOINT Neck
					{
						OFFSET -0.01926 1.80512 0.08867
						CHANNELS 3 Zrotation Yrotation Xrotation
						JOINT Head
						{
							OFFSET 0.05516 1.76451 -0.38475
							CHANNELS 3 Zrotation Yrotation Xrotation
							End Site
							{
								OFFSET 0.01592 1.82587 -0.14001
							}
						}
					}
				}
				JOINT LeftCollar
				{
					OFFSET 0 0 0
					CHANNELS 3 Zrotation Yrotation Xrotation
					JOINT LeftShoulder
					{
						OFFSET 3.47116 1.51376 0.14491
CHANNELS 3 Zrotation Xrotation Yrotation
						JOINT LeftElbow
						{
OFFSET 0 -4.780950 0.000000
CHANNELS 3 Zrotation Xrotation Yrotation
							JOINT LeftWrist
							{
OFFSET 0 -3.586150 -0.000000
CHANNELS 3 Zrotation Xrotation Yrotation
								JOINT lhand
								{
									OFFSET 0 0 0
CHANNELS 3 Zrotation Xrotation Yrotation
									JOINT LFingers
									{
OFFSET 0 -0.659810 0.000000
CHANNELS 3 Zrotation Xrotation Yrotation
										End Site
										{
OFFSET 0 -0.531960 0.000000
										}
									}
								}
								JOINT LThumb
								{
OFFSET 0 0.000000 0.000000
CHANNELS 3 Zrotation Xrotation Yrotation
									End Site
									{
OFFSET 0 -0.540080 0.540080
									}
								}
							}
						}
					}
				}
				JOINT RightCollar
				{
					OFFSET 0 0 0
					CHANNELS 3 Zrotation Yrotation Xrotation
					JOINT RightShoulder
					{
						OFFSET -3.31725 1.61216 0.35156
CHANNELS 3 Zrotation Xrotation Yrotation
						JOINT RightElbow
						{
OFFSET 0 -4.489130 0.000000
CHANNELS 3 Zrotation Xrotation Yrotation
							JOINT RightWrist
							{
OFFSET 0 -3.705100 0.000000
CHANNELS 3 Zrotation Xrotation Yrotation
								JOINT rhand
								{
									OFFSET 0 0 0
CHANNELS 3 Zrotation Xrotation Yrotation
									JOINT RFingers
									{
OFFSET 0 -0.449140 0.000000
CHANNELS 3 Zrotation Xrotation Yrotation
										End Site
										{
OFFSET 0 -0.362110 0.000000
										}
									}
								}
								JOINT RThumb
								{
OFFSET 0 0.000000 0.000000
CHANNELS 3 Zrotation Xrotation Yrotation
									End Site
									{
OFFSET 0 -0.367630 0.367630
									}
								}
							}
						}
					}
				}
			}
		}
	}
}
MOTION
Frames: 8
Frame Time: 0.008333333333333333
-0.652800 18.697600 5.796700 -1.524100 -2.552700 2.283100 0.000000 0.000000 0.000000 -13.542800 -10.480500 -1.063300 1.191500 6.926600 19.498100 1.721400 7.303500 -28.331700 8.142200 -16.222900 -53.073300 0.000000 0.000000 0.000000 0.000000 0.000000 0.000000 0.000000 0.000000 0.000000 -0.000000 -0.000000 0.000000 -0.000000 -0.000000 0.000000 -1.245200 0.683300 1.752500 -0.072500 0.861500 -3.202500 0.575700 0.468200 -4.298900 -3.867100 -2.249200 -8.325400 6.009100 -3.808200 21.699000 2.293700 -1.549600 8.269600 0.000000 0.000000 0.000000 -2.216000 15.887600 -17.937300 22.151000 -33.147200 6.668200 18.052900 -2.642800 32.932100 0.000000 0.000000 0.000000 -7.125000 0.000000 0.000000 -7.837400 -4.000400 -8.442200 0.000000 0.000000 0.000000 -0.225300 20.606800 19.786700 -24.161600 -35.334700 -7.799800 -4.085100 22.879700 30.598300 0.000000 0.000000 0.000000 7.125000 0.000000 -0.000000 30.271500 57.965100 -10.215600
-0.657695 18.699443 5.794683 -1.486402 -2.510864 2.348912 0.000000 0.000000 0.000000 -13.527925 -10.414808 -1.172939 1.187187 6.914574 19.462596 1.704484 7.298447 -28.214324 8.182450 -16.251815 -53.217160 0.000000 0.000000 0.000000 0.000000 0.000000 0.000000 0.000000 0.000000 0.000000 0.000000 0.000000 0.000000 0.000000 0.000000 0.000000 -1.325074 0.711866 1.822353 -0.093189 0.894290 -3.248098 0.596009 0.487452 -4.387736 -3.983289 -2.334044 -8.446210 5.954674 -3.884986 21.578998 2.285200 -1.599439 8.257120 0.000000 0.000000 0.000000 -2.517424 15.828889 -16.876131 21.907674 -32.872224 6.535832 18.084763 -1.996202 33.319002 0.000000 0.000000 0.000000 -7.125000 0.000000 0.000000 -7.869589 -4.394049 -8.527802 0.000000 0.000000 0.000000 -0.167069 20.675736 19.651528 -24.029260 -35.195175 -7.723463 -3.994043 23.011673 30.511359 0.000000 0.000000 0.000000 7.125000 0.000000 0.000000 30.286965 57.871042 -10.151243
-0.662016 18.700374 5.794004 -1.486994 -2.447725 2.397125 0.000000 0.000000 0.000000 -13.476667 -10.381264 -1.265726 1.187256 6.914817 19.463150 1.695507 7.236431 -28.114823 8.178658 -16.249155 -53.203751 0.000000 0.000000 0.000000 0.000000 0.000000 0.000000 0.000000 0.000000 0.000000 0.000000 0.000000 0.000000 0.000000 0.000000 0.000000 -1.373659 0.737142 1.763650 -0.094748 0.927482 -3.202117 0.620844 0.504807 -4.308087 -4.078351 -2.447533 -8.587092 5.871127 -3.995573 21.412835 2.259338 -1.666332 8.234039 0.000000 0.000000 0.000000 -2.911167 15.451809 -15.471067 21.521373 -32.431657 6.327281 17.722562 -0.676352 33.610350 0.000000 0.000000 0.000000 -7.125000 0.000000 0.000000 -8.108313 -4.616063 -8.820244 0.000000 0.000000 0.000000 -0.113353 20.577497 19.487108 -23.843495 -34.998136 -7.616658 -3.946696 23.248238 30.513220 0.000000 0.000000 0.000000 7.125000 0.000000 0.000000 30.334891 57.862394 -10.162905
-0.666189 18.700300 5.794964 -1.520346 -2.372239 2.437292 0.000000 0.000000 0.000000 -13.389684 -10.298486 -1.371462 1.188364 6.917836 19.472208 1.675865 7.199463 -27.957948 8.215195 -16.275237 -53.334124 0.000000 0.000000 0.000000 0.000000 0.000000 0.000000 0.000000 0.000000 0.000000 0.000000 0.000000 0.000000 0.000000 0.000000 0.000000 -1.583575 0.698183 1.354457 0.056143 0.882821 -2.913827 0.903711 0.486601 -3.781812 -4.221841 -2.558248 -8.978665 5.687720 -4.064294 21.253293 2.209936 -1.722210 8.256007 0.000000 0.000000 0.000000 -3.167870 15.187684 -15.394201 21.529464 -32.440332 6.331961 17.284128 -0.335117 33.187387 0.000000 0.000000 0.000000 -7.125000 0.000000 0.000000 -8.298744 -4.110973 -8.963521 0.000000 0.000000 0.000000 -0.329315 20.076081 19.525330 -23.615782 -34.755101 -7.486455 -4.037754 23.505956 30.527788 0.000000 0.000000 0.000000 7.125000 0.000000 0.000000 30.258231 57.894486 -10.157857
-0.669711 18.700717 5.797354 -1.552010 -2.292887 2.490521 0.000000 0.000000 0.000000 -13.313160 -10.256083 -1.475990 1.190233 6.923096 19.487728 1.659893 7.176534 -27.834097 8.257261 -16.305250 -53.484147 0.000000 0.000000 0.000000 0.000000 0.000000 0.000000 0.000000 0.000000 0.000000 0.000000 0.000000 0.000000 0.000000 0.000000 0.000000 -1.846401 0.640724 0.856540 0.249377 0.816113 -2.595123 1.261074 0.456845 -3.175689 -4.314387 -2.651619 -9.421528 5.423637 -4.099993 21.145096 2.127827 -1.764949 8.300202 0.000000 0.000000 0.000000 -3.382468 14.719031 -15.479170 21.026509 -31.849230 6.068608 17.253111 -0.405743 33.189762 0.000000 0.000000 0.000000 -7.125000 0.000000 0.000000 -8.316548 -4.107556 -8.982666 0.000000 0.000000 0.000000 -0.608634 19.536058 19.607288 -23.421641 -34.546576 -7.376035 -4.069415 23.750644 30.646299 0.000000 0.000000 0.000000 7.125000 0.000000 0.000000 30.327947 58.002725 -10.265301
-0.673183 18.701946 5.800944 -1.591739 -2.210382 2.550345 0.000000 0.000000 0.000000 -13.230401 -10.261343 -1.553561 1.191586 6.926928 19.498983 1.657081 7.100723 -27.767720 8.246799 -16.297762 -53.446739 0.000000 0.000000 0.000000 0.000000 0.000000 0.000000 0.000000 0.000000 0.000000 0.000000 0.000000 0.000000 0.000000 0.000000 0.000000 -1.918056 0.629953 0.607227 0.322049 0.807859 -2.480231 1.379947 0.452346 -2.918330 -4.411209 -2.742710 -9.670170 5.343481 -4.182614 21.140149 2.106045 -1.815203 8.349613 0.000000 0.000000 0.000000 -3.689993 14.129347 -14.440803 20.080059 -30.738044 5.572450 17.391683 0.399676 33.917897 0.000000 0.000000 0.000000 -7.125000 0.000000 0.000000 -8.330684 -4.859841 -9.099854 0.000000 0.000000 0.000000 -0.696812 19.351950 19.646497 -23.323467 -34.440602 -7.320372 -3.977827 23.851487 30.776026 0.000000 0.000000 0.000000 7.125000 0.000000 0.000000 30.528332 58.093840 -10.410289
-0.677035 18.702400 5.805872 -1.595628 -2.152507 2.572219 0.000000 0.000000 0.000000 -13.194374 -10.231926 -1.585132 1.192213 6.928581 19.503944 1.660860 7.001970 -27.732708 8.230162 -16.285962 -53.387576 0.000000 0.000000 0.000000 0.000000 0.000000 0.000000 0.000000 0.000000 0.000000 0.000000 0.000000 0.000000 0.000000 0.000000 0.000000 -1.962990 0.648751 0.491095 0.342479 0.835314 -2.433691 1.426962 0.465863 -2.806939 -4.648751 -2.861919 -9.817794 5.482984 -4.330205 21.138624 2.175942 -1.887694 8.392971 0.000000 0.000000 0.000000 -3.823964 14.122631 -14.093538 19.971492 -30.607911 5.516791 17.442416 0.836277 34.154998 0.000000 0.000000 0.000000 -7.125000 0.000000 0.000000 -8.333543 -5.105902 -9.135637 0.000000 0.000000 0.000000 -0.735736 19.296116 19.713066 -23.284564 -34.398524 -7.298393 -3.896288 23.842155 30.806566 0.000000 0.000000 0.000000 7.125000 0.000000 0.000000 30.634396 58.102303 -10.457429
-0.681720 18.700850 5.810728 -1.598305 -2.094443 2.575588 0.000000 0.000000 0.000000 -13.150655 -10.135632 -1.631797 1.191935 6.927797 19.501774 1.654964 6.899616 -27.629012 8.244663 -16.296332 -53.439360 0.000000 0.000000 0.000000 0.000000 0.000000 0.000000 0.000000 0.000000 0.000000 0.000000 0.000000 0.000000 0.000000 0.000000 0.000000 -2.019526 0.665788 0.407511 0.372069 0.859566 -2.406152 1.489474 0.478762 -2.733823 -4.900215 -2.989655 -9.901088 5.623204 -4.487990 21.108472 2.247753 -1.967189 8.416296 0.000000 0.000000 0.000000 -3.777321 14.345311 -14.497258 20.245642 -30.937022 5.657157 17.514932 0.655989 34.011647 0.000000 0.000000 0.000000 -7.125000 0.000000 0.000000 -8.274912 -4.976758 -9.053101 0.000000 0.000000 0.000000 -0.780023 19.279566 19.804159 -23.280085 -34.393676 -7.295929 -3.914489 23.818038 30.774870 0.000000 0.000000 0.000000 7.125000 0.000000 0.000000 30.589386 58.079282 -10.422710
